<svg id="svg" xmlns="http://www.w3.org/2000/svg" xmlns:xlink="http://www.w3.org/1999/xlink" width="400" height="400" viewBox="0, 0, 400,400"><g id="svgg"><path id="path0" d="M187.200 50.211 C 183.350 50.511,178.580 51.035,176.600 51.375 C 174.620 51.715,171.920 52.179,170.600 52.405 C 159.264 54.346,145.202 58.769,134.892 63.638 C 133.073 64.497,131.329 65.200,131.016 65.200 C 130.703 65.200,130.337 65.378,130.203 65.595 C 130.069 65.812,128.663 66.637,127.080 67.429 C 125.496 68.220,123.300 69.390,122.200 70.028 C 121.100 70.666,119.660 71.457,119.000 71.786 C 117.740 72.414,117.364 72.646,114.420 74.620 C 106.704 79.791,103.113 82.504,94.400 89.749 C 88.797 94.407,75.162 109.448,72.088 114.362 C 71.731 114.933,71.201 115.670,70.911 116.000 C 67.911 119.412,56.800 138.858,56.800 140.696 C 56.800 140.919,56.548 141.311,56.239 141.567 C 55.931 141.823,55.557 142.520,55.408 143.116 C 55.260 143.712,54.893 144.740,54.594 145.400 C 51.613 151.974,48.073 163.001,46.376 171.000 C 45.909 173.200,45.276 176.170,44.970 177.600 C 44.664 179.030,44.226 181.889,43.997 183.954 C 43.768 186.019,43.314 189.977,42.990 192.751 C 42.243 199.137,42.249 208.588,43.004 215.800 C 44.156 226.805,44.430 229.016,44.785 230.200 C 44.983 230.860,45.267 232.390,45.416 233.600 C 45.565 234.810,46.225 237.870,46.881 240.400 C 47.537 242.930,48.307 245.900,48.593 247.000 C 48.878 248.100,49.575 250.350,50.142 252.000 C 50.709 253.650,51.470 255.900,51.835 257.000 C 52.199 258.100,52.835 259.732,53.248 260.626 C 53.662 261.521,54.000 262.381,54.000 262.538 C 54.000 263.367,60.878 277.329,62.602 280.000 C 63.383 281.210,64.386 282.950,64.831 283.868 C 65.276 284.785,65.901 285.752,66.220 286.017 C 66.539 286.281,66.800 286.650,66.800 286.835 C 66.800 287.020,67.345 287.943,68.011 288.886 C 68.677 289.829,69.843 291.500,70.602 292.600 C 71.360 293.700,72.295 295.050,72.678 295.600 C 81.329 308.006,97.112 322.885,112.400 333.046 C 114.270 334.289,116.250 335.609,116.800 335.980 C 117.350 336.351,118.070 336.785,118.400 336.946 C 118.730 337.107,119.720 337.669,120.600 338.196 C 125.906 341.371,130.876 343.635,131.466 343.146 C 131.995 342.706,132.052 339.194,131.934 314.423 L 131.800 286.200 161.400 286.179 C 183.122 286.164,191.479 286.030,192.800 285.678 C 193.790 285.413,195.680 285.010,197.000 284.781 C 203.202 283.706,211.835 280.092,217.755 276.092 C 227.174 269.726,230.878 261.578,229.631 249.961 C 228.679 241.097,223.544 235.014,209.800 226.475 C 207.749 225.200,190.293 216.400,189.815 216.400 C 189.670 216.400,188.527 215.932,187.275 215.361 C 184.722 214.195,183.060 213.453,181.594 212.827 C 181.047 212.593,180.330 212.235,180.000 212.030 C 179.670 211.826,176.970 210.450,174.000 208.973 C 147.681 195.880,136.800 180.771,136.800 157.316 C 136.800 136.512,149.292 117.846,169.600 108.307 C 174.855 105.839,179.472 104.000,180.414 104.000 C 180.875 104.000,181.646 103.778,182.126 103.507 C 183.044 102.989,187.475 101.841,191.200 101.155 C 192.410 100.932,194.446 100.488,195.725 100.167 C 199.410 99.241,209.405 98.382,219.518 98.121 C 227.502 97.915,228.882 97.789,229.160 97.241 C 229.848 95.884,229.162 52.808,228.447 52.427 C 224.619 50.390,201.117 49.127,187.200 50.211 M253.775 61.028 C 253.624 62.034,253.663 76.659,253.862 93.528 C 254.114 114.821,254.096 124.506,253.804 125.200 C 253.313 126.370,254.094 126.349,238.800 125.607 C 220.988 124.743,207.607 125.330,198.200 127.389 C 194.431 128.214,188.219 130.203,187.364 130.858 C 187.124 131.042,185.864 131.756,184.564 132.445 C 172.859 138.651,166.541 151.605,170.164 161.973 C 172.473 168.582,178.879 175.374,186.800 179.612 C 187.790 180.141,188.870 180.785,189.200 181.041 C 190.283 181.883,206.803 190.000,207.435 190.000 C 208.117 190.000,217.800 194.599,224.200 197.963 C 227.289 199.587,234.138 203.695,234.729 204.278 C 235.019 204.565,235.409 204.800,235.594 204.800 C 235.779 204.800,237.881 206.354,240.265 208.252 C 253.100 218.474,260.330 229.246,261.983 240.608 C 262.206 242.144,262.570 244.480,262.792 245.800 C 263.580 250.490,262.405 262.908,260.894 265.855 C 260.684 266.265,260.397 267.230,260.255 268.000 C 260.113 268.770,259.737 269.940,259.420 270.600 C 259.102 271.260,258.376 272.838,257.807 274.106 C 256.872 276.186,253.636 281.264,251.445 284.089 C 248.770 287.537,242.265 293.517,237.778 296.654 C 236.278 297.703,228.043 302.395,227.670 302.414 C 227.522 302.421,226.680 302.775,225.800 303.200 C 224.920 303.625,224.040 303.979,223.844 303.986 C 223.648 303.994,222.748 304.338,221.844 304.751 C 217.152 306.894,207.408 309.727,201.200 310.753 C 199.990 310.953,198.010 311.311,196.800 311.548 C 190.466 312.792,180.336 313.635,168.948 313.866 C 162.377 313.999,156.786 314.277,156.524 314.483 C 156.162 314.768,156.103 319.342,156.275 333.529 C 156.536 354.998,156.266 353.616,160.354 354.392 C 161.589 354.626,163.590 355.086,164.800 355.413 C 168.752 356.483,174.525 357.578,178.400 357.994 C 180.490 358.218,183.550 358.594,185.200 358.830 C 194.411 360.146,218.753 359.103,229.200 356.944 C 237.985 355.129,244.337 353.560,247.800 352.351 C 248.460 352.121,249.900 351.683,251.000 351.379 C 252.100 351.074,253.675 350.549,254.500 350.213 C 255.325 349.876,256.675 349.341,257.500 349.024 C 263.794 346.605,273.905 341.871,278.879 339.015 C 286.539 334.617,299.039 325.969,303.200 322.189 C 310.737 315.344,314.989 311.273,317.003 308.976 C 318.321 307.472,319.760 305.858,320.200 305.388 C 323.028 302.369,323.797 301.392,330.961 291.728 C 331.642 290.808,333.100 288.591,334.200 286.802 C 335.300 285.013,336.798 282.615,337.530 281.474 C 340.006 277.611,347.959 260.841,348.014 259.369 C 348.021 259.166,348.375 258.280,348.800 257.400 C 349.225 256.520,349.579 255.568,349.586 255.284 C 349.594 255.000,349.936 254.100,350.346 253.284 C 350.756 252.468,351.212 251.080,351.359 250.200 C 351.505 249.320,351.873 247.970,352.176 247.200 C 357.456 233.787,359.717 200.511,356.619 181.800 C 355.174 173.066,352.627 162.334,350.735 157.000 C 349.693 154.063,348.793 151.639,347.986 149.600 C 347.508 148.390,346.856 146.680,346.538 145.800 C 345.962 144.208,343.085 137.944,342.403 136.800 C 341.546 135.361,339.600 131.213,339.600 130.825 C 339.600 130.591,339.453 130.400,339.274 130.400 C 339.095 130.400,338.636 129.815,338.254 129.100 C 328.245 110.352,308.492 89.132,289.400 76.619 C 286.760 74.888,283.960 73.051,283.178 72.536 C 282.397 72.021,281.650 71.600,281.519 71.600 C 281.389 71.600,280.117 70.892,278.693 70.027 C 276.512 68.702,270.491 65.695,263.356 62.367 C 262.452 61.945,261.453 61.600,261.136 61.600 C 260.819 61.600,260.384 61.424,260.169 61.209 C 259.729 60.769,255.351 59.200,254.562 59.200 C 254.260 59.200,253.936 59.950,253.775 61.028 " stroke="none" fill="#050504" fill-rule="evenodd"></path><path id="path1" d="M0.000 200.000 L 0.000 400.000 200.000 400.000 L 400.000 400.000 400.000 200.000 L 400.000 0.000 200.000 0.000 L 0.000 0.000 0.000 200.000 M215.600 50.371 C 221.115 50.821,227.286 51.809,228.447 52.427 C 229.162 52.808,229.848 95.884,229.160 97.241 C 228.882 97.789,227.502 97.915,219.518 98.121 C 209.405 98.382,199.410 99.241,195.725 100.167 C 194.446 100.488,192.410 100.932,191.200 101.155 C 187.475 101.841,183.044 102.989,182.126 103.507 C 181.646 103.778,180.875 104.000,180.414 104.000 C 179.472 104.000,174.855 105.839,169.600 108.307 C 149.292 117.846,136.800 136.512,136.800 157.316 C 136.800 180.771,147.681 195.880,174.000 208.973 C 176.970 210.450,179.670 211.826,180.000 212.030 C 180.330 212.235,181.047 212.593,181.594 212.827 C 183.060 213.453,184.722 214.195,187.275 215.361 C 188.527 215.932,189.670 216.400,189.815 216.400 C 190.293 216.400,207.749 225.200,209.800 226.475 C 223.544 235.014,228.679 241.097,229.631 249.961 C 230.878 261.578,227.174 269.726,217.755 276.092 C 211.835 280.092,203.202 283.706,197.000 284.781 C 195.680 285.010,193.790 285.413,192.800 285.678 C 191.479 286.030,183.122 286.164,161.400 286.179 L 131.800 286.200 131.934 314.423 C 132.052 339.194,131.995 342.706,131.466 343.146 C 130.876 343.635,125.906 341.371,120.600 338.196 C 119.720 337.669,118.730 337.107,118.400 336.946 C 118.070 336.785,117.350 336.351,116.800 335.980 C 116.250 335.609,114.270 334.289,112.400 333.046 C 97.112 322.885,81.329 308.006,72.678 295.600 C 72.295 295.050,71.360 293.700,70.602 292.600 C 69.843 291.500,68.677 289.829,68.011 288.886 C 67.345 287.943,66.800 287.020,66.800 286.835 C 66.800 286.650,66.539 286.281,66.220 286.017 C 65.901 285.752,65.276 284.785,64.831 283.868 C 64.386 282.950,63.383 281.210,62.602 280.000 C 60.878 277.329,54.000 263.367,54.000 262.538 C 54.000 262.381,53.662 261.521,53.248 260.626 C 52.835 259.732,52.199 258.100,51.835 257.000 C 51.470 255.900,50.709 253.650,50.142 252.000 C 49.575 250.350,48.878 248.100,48.593 247.000 C 48.307 245.900,47.537 242.930,46.881 240.400 C 46.225 237.870,45.565 234.810,45.416 233.600 C 45.267 232.390,44.983 230.860,44.785 230.200 C 44.430 229.016,44.156 226.805,43.004 215.800 C 42.249 208.588,42.243 199.137,42.990 192.751 C 43.314 189.977,43.768 186.019,43.997 183.954 C 44.226 181.889,44.664 179.030,44.970 177.600 C 45.276 176.170,45.909 173.200,46.376 171.000 C 48.073 163.001,51.613 151.974,54.594 145.400 C 54.893 144.740,55.260 143.712,55.408 143.116 C 55.557 142.520,55.931 141.823,56.239 141.567 C 56.548 141.311,56.800 140.919,56.800 140.696 C 56.800 138.858,67.911 119.412,70.911 116.000 C 71.201 115.670,71.731 114.933,72.088 114.362 C 75.162 109.448,88.797 94.407,94.400 89.749 C 103.113 82.504,106.704 79.791,114.420 74.620 C 117.364 72.646,117.740 72.414,119.000 71.786 C 119.660 71.457,121.100 70.666,122.200 70.028 C 123.300 69.390,125.496 68.220,127.080 67.429 C 128.663 66.637,130.069 65.812,130.203 65.595 C 130.337 65.378,130.703 65.200,131.016 65.200 C 131.329 65.200,133.073 64.497,134.892 63.638 C 145.202 58.769,159.264 54.346,170.600 52.405 C 171.920 52.179,174.620 51.715,176.600 51.375 C 185.943 49.769,202.890 49.333,215.600 50.371 M257.426 60.009 C 258.720 60.454,259.954 60.994,260.169 61.209 C 260.384 61.424,260.819 61.600,261.136 61.600 C 261.453 61.600,262.452 61.945,263.356 62.367 C 270.491 65.695,276.512 68.702,278.693 70.027 C 280.117 70.892,281.389 71.600,281.519 71.600 C 281.650 71.600,282.397 72.021,283.178 72.536 C 283.960 73.051,286.760 74.888,289.400 76.619 C 308.492 89.132,328.245 110.352,338.254 129.100 C 338.636 129.815,339.095 130.400,339.274 130.400 C 339.453 130.400,339.600 130.591,339.600 130.825 C 339.600 131.213,341.546 135.361,342.403 136.800 C 343.085 137.944,345.962 144.208,346.538 145.800 C 346.856 146.680,347.508 148.390,347.986 149.600 C 348.793 151.639,349.693 154.063,350.735 157.000 C 359.470 181.623,360.476 213.982,353.409 243.000 C 353.034 244.540,352.479 246.430,352.176 247.200 C 351.873 247.970,351.505 249.320,351.359 250.200 C 351.212 251.080,350.756 252.468,350.346 253.284 C 349.936 254.100,349.594 255.000,349.586 255.284 C 349.579 255.568,349.225 256.520,348.800 257.400 C 348.375 258.280,348.021 259.166,348.014 259.369 C 347.959 260.841,340.006 277.611,337.530 281.474 C 336.798 282.615,335.300 285.013,334.200 286.802 C 333.100 288.591,331.642 290.808,330.961 291.728 C 323.797 301.392,323.028 302.369,320.200 305.388 C 319.760 305.858,318.321 307.472,317.003 308.976 C 314.989 311.273,310.737 315.344,303.200 322.189 C 299.039 325.969,286.539 334.617,278.879 339.015 C 273.905 341.871,263.794 346.605,257.500 349.024 C 256.675 349.341,255.325 349.876,254.500 350.213 C 253.675 350.549,252.100 351.074,251.000 351.379 C 249.900 351.683,248.460 352.121,247.800 352.351 C 244.337 353.560,237.985 355.129,229.200 356.944 C 218.753 359.103,194.411 360.146,185.200 358.830 C 183.550 358.594,180.490 358.218,178.400 357.994 C 174.525 357.578,168.752 356.483,164.800 355.413 C 163.590 355.086,161.589 354.626,160.354 354.392 C 156.266 353.616,156.536 354.998,156.275 333.529 C 156.103 319.342,156.162 314.768,156.524 314.483 C 156.786 314.277,162.377 313.999,168.948 313.866 C 180.336 313.635,190.466 312.792,196.800 311.548 C 198.010 311.311,199.990 310.953,201.200 310.753 C 207.408 309.727,217.152 306.894,221.844 304.751 C 222.748 304.338,223.648 303.994,223.844 303.986 C 224.040 303.979,224.920 303.625,225.800 303.200 C 226.680 302.775,227.522 302.421,227.670 302.414 C 228.043 302.395,236.278 297.703,237.778 296.654 C 242.265 293.517,248.770 287.537,251.445 284.089 C 253.636 281.264,256.872 276.186,257.807 274.106 C 258.376 272.838,259.102 271.260,259.420 270.600 C 259.737 269.940,260.113 268.770,260.255 268.000 C 260.397 267.230,260.684 266.265,260.894 265.855 C 262.405 262.908,263.580 250.490,262.792 245.800 C 262.570 244.480,262.206 242.144,261.983 240.608 C 260.330 229.246,253.100 218.474,240.265 208.252 C 237.881 206.354,235.779 204.800,235.594 204.800 C 235.409 204.800,235.019 204.565,234.729 204.278 C 233.267 202.834,222.509 196.890,214.800 193.267 C 209.265 190.665,207.765 190.000,207.435 190.000 C 206.803 190.000,190.283 181.883,189.200 181.041 C 188.870 180.785,187.790 180.141,186.800 179.612 C 178.879 175.374,172.473 168.582,170.164 161.973 C 166.541 151.605,172.859 138.651,184.564 132.445 C 185.864 131.756,187.124 131.042,187.364 130.858 C 188.219 130.203,194.431 128.214,198.200 127.389 C 207.607 125.330,220.988 124.743,238.800 125.607 C 254.094 126.349,253.313 126.370,253.804 125.200 C 254.096 124.506,254.114 114.821,253.862 93.528 C 253.663 76.659,253.624 62.034,253.775 61.028 C 254.090 58.929,254.199 58.899,257.426 60.009 " stroke="none" fill="#fbed05" fill-rule="evenodd"></path></g></svg>